<?xml version="1.0" encoding="UTF-8"?>
<svg id="Livello_1" xmlns="http://www.w3.org/2000/svg" version="1.1" viewBox="0 0 1024 1024">
  <!-- Generator: Adobe Illustrator 30.0.0, SVG Export Plug-In . SVG Version: 2.1.1 Build 123)  -->
  <defs>
    <style>
      .st0 {
        fill: #e4031e;
      }

      .st1 {
        fill: #fcdd4a;
      }

      .st2 {
        fill: #f4f5f5;
      }

      .st3 {
        fill: #f3f4f4;
      }

      .st4 {
        fill: #1b219e;
      }
    </style>
  </defs>
  <path d="M585,434l20.25-22.25c7.59-21.13,20.43-40.97,35.22-57.78,2.1-2.39,5.01-3.47,6.98-6.02,5.16-6.68,7.63-20.55,12.75-29.25,9.7-16.49,31.85-41.2,52.74-27.13,20.26,13.64,4.45,36.48-6.96,49.9-6.89,8.1-16.45,15.03-23.37,22.63-7.42,8.16-13.54,19.34-21.09,27.91-5.63,6.38-13.95,12.49-18.93,19.07-7.09,9.38-12.67,25.94-18.41,36.59-8.14,15.09-22.03,26.98-40.17,25.34,4.11,5.44,7.88,12.01,12.49,17,4.85,5.25,11.51,9.24,15.93,15.07s6.98,15.61,11.59,20.41c3.23,3.36,9.04,5.09,12.91,8.09,13.75,10.66,5.83,20.66,12.38,33.62,2.93,5.8,6.03,6.3,9.7,10.3,15.92,17.36,10.42,39.03,23.2,58.8,14.34,22.17,31.56,31.07,5.82,55.2-13.23,12.41-28.9,22.32-42.05,34.95-27.36,26.26-80.79,85.13-119.47,87.52-27.35,1.69-37.69-13.2-55-28.97-6.42-5.85-15.93-9.84-22.5-15.5-4.32-3.72-7.25-8.62-11.46-12.54-15.99-14.88-38.97-19.36-53.5-36.5-22.47-26.51-19.72-53.23-21.03-85.47-.48-11.84-1.59-23.69-2.04-35.46-1.31-33.99,10.24-62.02,3.77-96.77-3.86-20.74-15.6-39.51-19.46-59.54-2.31-11.97-1.39-23.01-2.28-34.72-.7-9.11-10.97-38.2,3.57-40.45,7.37-1.14,14.48.19,20.78,4.1s32.96,33.43,35.7,40.3c7.41,18.53-.78,39.74-8.12,56.76-.33.77-1.86.79-1.94,1.44-.42,3.34,3.81,11.34,3.98,14.93.12,2.67-1.87,5.12-2.01,7.95-.13,2.62,1.22,5.07,1.04,6.93-.17,1.74-2.07,2.87-2.09,6.01-.08,10.44,3.09,12.85,6.31,20.82,2.74,6.78,2.65,12.36,8.8,18.19,3.62,3.43,4.61,1.13,6.93,2.05s4.94,3.65,7.79,4.23c14.47,2.99,21.76-9.42,33.89-10.66,12.98-1.32,19.34,9.47,33.33.33,2.94-1.92,7.94-8.02,11.01-8.99,4.98-1.59,10.99.58,16.77-2.23,8.73-4.25,7.75-13.94,10.79-21.21,6.02-14.44,30.28-35.89,42.5-46l4.99,4c-.45-2.72-1.76-3.94-1.99-7-.95-12.83,9.89-19.24,10-26Z"/>
  <path class="st0" d="M689.25,570.79c-4.52-4.85,2.89-11.98,4.93-16.11,7.16-14.52,12.56-27.34,29.8-32.2,3.15-.89,10.39-1.16,12.37-2.39.68-.42,4.94-11.83,6.63-14.62,4.97-8.22,14.83-19.39,23.66-23.34,4.43-1.99,8.74-1.92,12.91-4.09-1.59-20.97,12.75-41.91,28.45-54.55,11.16-8.99,27.8-12.23,37.53.49,19.21,25.12-24.23,65.99-48.07,70.98-2.32,15.76-18.48,32.97-32.76,39.24-3.95,1.73-15.91,3.89-17.67,5.33-2.27,1.86-1.85,8.2-2.7,11.3-4.12,14.97-23.59,25.52-38.58,22.94-2.87-.49-6.22-3.17-8.2-3.31-2.19-.15-6.54,2.22-8.29.34Z"/>
  <path class="st4" d="M766.13,408.13c-2.49,10.51-6.64,20.55-13.62,28.88-7.78,9.28-24.65,23.54-37.43,16.41l-6.55-6.4c-1.31,1.72-8.52,7.14-7.46,8.92.06.1,1.14-.02,1.51.44,7.87,9.76,6.84,18.35-.58,28.12-7.88,10.39-26.26,26.84-38.02,12.03-7.15-9.01-1.05-21.67,4.21-29.84,7.86-12.19,16.63-20.56,31.73-12.72.28-3.64,6.59-6.55,7.61-8.99.45-1.08-.71-7-.56-9.51.62-10.56,14.96-33.26,23.7-39.3,3.32-2.3,15.55-6.38,16.43-7.57,1.37-1.83.65-4.48,1.39-6.61,7.38-21.14,28.31-52.04,54.33-45.31,10.13,2.62,17.05,14.67,16.2,24.81-1.54,18.45-33.21,47.92-52.88,46.64Z"/>
  <path class="st1" d="M843.74,590.24c9.38-1.47,21.55.42,24.59,10.93,6.78,23.45-27.04,39.33-44.08,46.57-30.65,13.02-43.92,14.37-76.61,16.58-6.74.46-19.17,6.99-27.13,7.69-10.25.9-15.28-6.6-9.02-15.03,2.55-3.44,22.14-15.79,26.81-18.19,7.63-3.91,8.63-1.14,15.24-.78,11.41.62,25.32-11.96,37.02-15.96,2.74-.94,6.18-.59,8.42-1.58,2.45-1.09,10.85-11.28,14.01-13.99,7.28-6.23,21.31-14.76,30.75-16.25Z"/>
  <path class="st2" d="M331.65,130.35c11.52,11.74,21.86,39.06,14.35,54.64,14.77-.1,23.84,23.98,26.5,36,1.87,8.41,4.22,20.65-3.48,26.53-18.93,14.44-36.29-18.89-40.52-33.53-2.03-7.01-4.06-13.01-.5-19.99-22.33-.35-38.65-44.12-31.17-60.68,6.18-13.69,24.93-13.05,34.82-2.98Z"/>
  <path class="st2" d="M254,207.99c14.83.56,28.07,29.03,29.03,41.47.99,12.72-4.33,22.35-18.44,20.44-12.81-1.73-26.34-30.96-28.33-42.66-.33-1.96.05-7.97-.25-8.25-.25-.23-4.49-.04-6.73-.77-14.7-4.82-30.84-33.75-30.33-48.75.57-17.05,21.04-24.6,34.39-16.31s30,39.64,20.66,54.83Z"/>
  <path class="st3" d="M93.74,363.24c15.45-2.63,30.72,10.7,39.66,21.86,4.29,5.35,9.58,17.95,13.08,20.92,3.85,3.26,11.21,3.28,15.86,6.14,7.17,4.4,33.56,28.55,38.66,35.34,9.66,12.85.46,24.42-14.28,19.27-15.1-5.28-39.65-26.97-54.8-36.19-6.97-4.24-15.44-7.21-22.26-11.74-11.28-7.49-31.98-28.3-29.24-42.88,1.05-5.56,7.78-11.78,13.32-12.72Z"/>
  <path class="st2" d="M203.66,280.65c-11.47,10.97-24.06,4.04-32.63-6.18-9.36-11.17-26.48-39.3-10.94-50.88,18.11-13.49,35.98,8.94,43.29,23.53,5.14,10.27,9.98,24.25.28,33.53Z"/>
  <path class="st2" d="M367.78,251.23c10.85-1.19,16.37,6.1,20.4,15.09,5.15,11.5,15.58,46.28-2.89,50.47-12.88,2.92-20.2-8.47-25.15-18.43-7.41-14.89-18.17-44.3,7.64-47.12Z"/>
  <path class="st2" d="M283.74,268.24c18.4-3.02,29.14,30.38,29.15,44.37.01,12.38-9.26,22.56-21.9,16.9-10.35-4.64-23.52-33.06-23.06-44.02.34-8.2,7.86-15.94,15.8-17.25Z"/>
  <path class="st2" d="M247.65,343.35c7.49,7.61,21.16,26.65,14.36,37.16-12.35,19.07-33.79-4.16-40.81-16.2-14.77-25.35,8.09-39.61,26.45-20.95Z"/>
  <path class="st2" d="M202.77,285.19c16.8-2.27,28.99,29.88,26.02,43.1-1.85,8.25-13.43,9.96-19.81,5.23-10.43-7.73-28.49-45.32-6.21-48.32Z"/>
  <path class="st4" d="M654.72,500.21c15.48-3.46,12.19,17.43-.77,13.34-6.39-2.02-5.98-11.83.77-13.34Z"/>
  <g>
    <path class="st3" d="M585,434c-.11,6.76-10.95,13.17-10,26-.85,1.19-1.88,2.07-3,3-12.22,10.11-36.48,31.56-42.5,46-3.03,7.28-2.06,16.97-10.79,21.21-5.78,2.81-11.79.65-16.77,2.23-3.06.98-8.06,7.07-11.01,8.99-13.99,9.14-20.35-1.65-33.33-.33-12.13,1.24-19.42,13.65-33.89,10.66-2.86-.59-5.46-3.31-7.79-4.23s-3.31,1.39-6.93-2.05c-6.15-5.83-6.06-11.41-8.8-18.19-3.22-7.97-6.39-10.38-6.31-20.82.02-3.14,1.92-4.27,2.09-6.01.18-1.86-1.17-4.31-1.04-6.93.14-2.83,2.13-5.28,2.01-7.95-.17-3.58-4.4-11.59-3.98-14.93.08-.64,1.61-.66,1.94-1.44,7.35-17.02,15.53-38.23,8.12-56.76-2.75-6.87-29.17-36.23-35.7-40.3s-13.41-5.25-20.78-4.1c-14.54,2.25-4.27,31.34-3.57,40.45.9,11.71-.02,22.74,2.28,34.72,3.86,20.03,15.6,38.8,19.46,59.54,6.47,34.75-5.08,62.78-3.77,96.77.45,11.77,1.56,23.62,2.04,35.46-45.31,6.12-84.67-40.24-104.52-75.98-9.36-16.86-15.64-35.6-26.25-51.75-6.26-9.53-19.47-19.99-12.43-32.98,2.93-5.4,14.36-15.61,19.03-21.97,9.94-13.52,16.05-27.73,24.37-41.63,8.96-14.99,16.21-12.47,27.72-21.28,3.91-2.99,6.4-7.26,9.9-10.33,6.62-5.82,13.96-10.51,21.15-16.62,11.96-10.17,25.09-18.92,37.51-28.49,9.14-7.04,10.97-10.18,23.53-13.47,24.49-6.43,33.97,15.52,39.72,35.29,2.75,9.44,5.32,34.03,9.84,40.16,4.1,5.54,9.83,4.32,14.79,7.21,2.55,1.48,4.65,4.76,7.32,6.68,14.48,10.43,20.52,5.92,35.37,8.63,12.5,2.28,16.1,13.67,33.01,10.1,2.06-.43,13.93-4.48,15.65-5.35,2.94-1.5,5.92-5.75,9.25-6.74,4.94-1.48,24.05,2.68,28.76,5.33,3.75,2.11,8.36,7.78,8.29,12.21Z"/>
    <path class="st3" d="M622.76,254.26c14.36-1.96,24.23,1.72,26.13,17.35,3.09,25.43-18.48,60.5-36.88,76.9-1.79,1.59-6.81,4.02-7.52,5.48-1.41,2.9-.1,9.77-.51,13.49-1.74,15.73-16.15,56.07-37.91,40.95-10.66-7.41-6.23-21.33-2.55-31.41,2.37-6.5,13.07-23.3,13.48-27.62.33-3.45-4.88-8.26-6.71-12.19-15.25-32.71,19.79-78.5,52.47-82.95Z"/>
  </g>
</svg>